<?xml version="1.0" standalone="no"?>
<!DOCTYPE svg PUBLIC "-//W3C//DTD SVG 20010904//EN"
 "http://www.w3.org/TR/2001/REC-SVG-20010904/DTD/svg10.dtd">
<svg version="1.0" xmlns="http://www.w3.org/2000/svg"
 width="768.000000pt" height="768.000000pt" viewBox="0 0 768.000000 768.000000"
 preserveAspectRatio="xMidYMid meet">
<metadata>
Created by potrace 1.11, written by Peter Selinger 2001-2013
</metadata>
<g transform="translate(0.000000,768.000000) scale(0.100000,-0.100000)"
fill="#000000" stroke="none">
<path d="M3449 6796 c-2 -2 -46 -6 -98 -10 -52 -4 -97 -8 -100 -10 -3 -2 -29
-7 -58 -10 -87 -10 -311 -63 -444 -106 -436 -139 -797 -357 -1124 -677 -146
-142 -296 -323 -386 -463 -19 -30 -50 -77 -68 -105 -56 -87 -185 -355 -228
-475 -86 -238 -137 -457 -158 -670 -3 -36 -8 -78 -11 -93 -7 -45 -7 -385 0
-462 7 -71 20 -178 31 -250 12 -77 57 -271 82 -350 14 -44 26 -84 28 -90 1 -5
6 -19 10 -30 4 -11 20 -51 35 -90 15 -38 35 -87 44 -108 9 -20 13 -37 9 -37
-5 0 -3 -4 3 -8 6 -4 32 -49 59 -100 l47 -92 -28 -23 c-27 -21 -148 -105 -239
-165 -22 -15 -45 -31 -52 -37 -6 -5 -77 -55 -158 -110 -287 -196 -371 -258
-428 -313 -95 -93 -160 -201 -202 -339 -18 -58 -18 -236 -1 -300 31 -116 112
-232 204 -295 26 -17 50 -36 54 -42 4 -6 8 -7 8 -3 0 4 10 2 23 -5 12 -6 27
-13 33 -14 29 -5 54 -16 50 -22 -2 -4 15 -8 37 -9 210 -9 309 -3 358 22 14 8
29 11 32 8 4 -3 13 0 22 7 8 7 23 9 32 6 10 -4 14 -4 10 0 -4 4 21 23 56 42
34 19 83 50 109 69 26 19 52 32 58 28 6 -4 9 -3 8 2 -2 4 0 9 5 11 4 1 16 10
26 20 11 9 26 22 33 27 73 55 90 65 100 59 7 -4 8 -3 4 4 -4 7 2 16 16 21 13
5 30 16 37 25 17 20 35 21 27 0 -3 -9 -2 -12 5 -9 6 4 8 13 5 21 -3 8 4 19 17
25 12 7 24 15 27 19 7 10 113 76 124 77 5 1 12 6 15 12 10 16 174 131 187 131
7 0 15 7 18 16 4 9 13 14 22 10 8 -3 13 -2 10 3 -3 5 20 26 52 47 31 22 59 43
60 47 2 4 10 3 18 -4 12 -10 13 -9 8 6 -5 11 31 -8 92 -49 54 -37 99 -71 99
-76 0 -5 4 -12 9 -17 5 -5 6 -3 2 5 -9 15 -1 15 25 1 11 -5 16 -15 13 -21 -4
-7 -3 -8 5 -4 6 4 26 -2 44 -12 42 -26 184 -98 221 -112 28 -10 29 -11 10 -33
-19 -22 -19 -22 2 -4 21 18 44 23 44 9 0 -4 8 -8 18 -9 9 -1 35 -10 57 -19 22
-10 42 -18 45 -19 3 -1 12 -4 20 -8 8 -3 33 -11 55 -18 22 -6 49 -16 60 -22
11 -6 33 -11 49 -13 16 -1 31 -6 35 -10 3 -5 22 -10 41 -12 19 -1 37 -6 40
-10 3 -4 10 -7 15 -7 16 0 158 -26 175 -32 8 -3 31 -7 50 -9 19 -2 46 -6 60
-10 26 -7 45 -9 123 -12 35 -1 46 -5 41 -14 -6 -10 -4 -10 7 -1 15 15 33 17
24 4 -3 -6 6 -6 24 -1 16 4 32 6 35 3 7 -7 312 -5 386 2 30 3 71 7 91 9 19 1
41 6 47 10 7 4 12 2 12 -5 0 -8 4 -9 13 0 10 8 17 7 27 -2 10 -9 11 -9 6 1 -5
8 2 12 23 13 43 2 48 3 57 11 4 4 14 2 22 -5 10 -7 13 -8 9 -1 -8 14 76 29 95
18 7 -5 8 -3 3 6 -6 10 -4 12 8 7 10 -3 17 -3 17 2 0 4 6 8 13 8 6 0 60 14
120 32 59 17 112 29 117 26 6 -4 13 1 16 9 3 9 15 16 25 16 11 0 27 4 37 9 47
26 190 84 209 85 11 0 19 4 17 7 -3 6 12 12 39 17 4 1 17 11 29 21 11 11 25
18 30 15 4 -3 8 0 8 7 0 7 3 9 7 6 3 -4 13 -1 22 6 34 29 182 108 191 102 5
-3 7 0 5 7 -3 8 10 21 32 33 20 11 41 25 47 30 37 34 88 65 98 59 6 -4 8 -3 5
3 -7 11 62 70 75 66 4 -2 5 4 2 12 -4 10 0 15 12 15 9 0 14 3 11 6 -4 4 1 14
11 23 21 20 35 42 68 111 15 30 30 57 33 60 3 3 7 14 7 25 1 11 7 45 13 75 47
223 -61 484 -254 612 -113 76 -250 113 -385 104 -145 -9 -213 -37 -393 -160
-227 -155 -444 -240 -727 -282 -69 -10 -300 -12 -382 -2 -392 44 -737 216
-1007 501 -25 27 -46 51 -46 55 0 3 -17 22 -37 42 -21 20 -38 40 -38 43 0 4
-16 28 -36 54 -20 27 -42 59 -48 73 -6 14 -16 31 -23 38 -7 8 -11 18 -8 23 4
5 2 9 -3 9 -9 0 -58 92 -64 120 -2 8 -7 19 -13 26 -5 6 -18 37 -29 70 -10 32
-23 70 -29 83 -7 13 -12 40 -12 62 0 21 -3 32 -7 26 -5 -7 -8 -3 -9 13 -3 33
-4 42 -14 63 -4 9 -5 24 -1 32 3 8 0 15 -6 15 -6 0 -5 6 3 17 8 9 9 14 3 10
-8 -4 -13 4 -16 23 -3 17 0 30 6 30 6 0 5 4 -3 9 -11 7 -14 41 -13 163 0 84 3
167 6 183 10 67 20 140 18 148 -1 4 3 7 9 7 5 0 8 4 5 9 -9 13 5 72 15 65 5
-3 6 1 3 9 -17 44 163 454 194 442 12 -4 12 -3 3 9 -9 11 -5 20 18 45 16 17
27 31 25 31 -5 0 40 62 71 99 50 59 128 136 136 133 5 -1 8 2 7 6 -6 19 149
147 252 209 73 45 170 93 170 86 0 -5 4 -3 8 3 9 16 132 65 143 58 5 -3 9 0 9
5 0 6 5 11 11 11 5 0 7 -6 4 -12 -4 -7 -1 -6 7 3 12 14 52 30 88 34 8 1 26 6
40 12 14 6 39 10 57 9 17 -1 29 2 27 6 -3 5 5 9 18 9 13 1 32 3 43 5 89 13
127 15 121 5 -4 -6 3 -5 17 2 20 11 60 12 220 8 28 -1 36 -4 31 -13 -6 -10 -4
-10 7 -2 8 5 23 9 34 8 68 -6 194 -30 225 -41 8 -3 24 -8 35 -10 26 -4 139
-45 145 -52 3 -3 14 -8 25 -9 11 -2 22 -8 23 -13 2 -5 8 -7 13 -3 5 3 9 1 9
-5 0 -6 6 -8 13 -5 7 2 22 -3 32 -13 11 -10 25 -18 30 -18 18 -1 65 -28 65
-37 0 -5 5 -6 10 -3 6 3 13 0 16 -8 2 -7 11 -14 18 -14 10 0 69 -36 86 -53 3
-3 12 -9 21 -15 9 -5 43 -28 75 -51 33 -22 82 -49 109 -59 28 -10 59 -26 69
-34 14 -12 17 -12 11 -2 -6 11 -3 13 16 7 52 -16 153 -18 232 -5 45 8 88 13
95 13 6 -1 12 2 12 6 0 10 59 33 82 33 10 0 15 3 12 8 -2 4 4 13 15 18 26 14
34 14 25 -1 -4 -7 -3 -8 5 -4 6 4 9 11 6 15 -7 12 32 44 45 36 6 -3 9 -1 8 7
-2 7 3 12 10 10 8 -1 11 2 8 7 -8 12 20 34 33 26 7 -3 8 0 5 9 -3 9 1 23 10
31 28 28 72 98 88 140 9 22 20 40 26 40 6 0 14 4 19 9 4 5 3 6 -4 2 -18 -10
-23 8 -9 35 20 38 21 234 1 309 -21 81 -68 178 -107 224 -10 10 -15 24 -11 29
3 6 1 7 -5 3 -6 -3 -14 -1 -19 7 -28 45 -296 236 -418 299 -16 8 -70 36 -120
61 -223 113 -558 225 -791 262 -16 3 -38 7 -50 10 -11 2 -45 7 -75 11 -30 3
-79 9 -110 13 -59 8 -413 14 -420 7z"/>
<path d="M3416 5538 c3 -5 10 -6 15 -3 13 9 11 12 -6 12 -8 0 -12 -4 -9 -9z"/>
<path d="M3630 5539 c0 -5 5 -7 10 -4 6 3 10 8 10 11 0 2 -4 4 -10 4 -5 0 -10
-5 -10 -11z"/>
<path d="M3696 5542 c-2 -4 -1 -14 4 -22 7 -11 9 -9 7 8 -1 24 -3 26 -11 14z"/>
<path d="M3379 5528 c-5 -18 -6 -38 -1 -34 7 8 12 36 6 36 -2 0 -4 -1 -5 -2z"/>
<path d="M3560 5520 c-9 -6 -10 -10 -3 -10 6 0 15 5 18 10 8 12 4 12 -15 0z"/>
<path d="M5616 5518 c3 -5 10 -6 15 -3 13 9 11 12 -6 12 -8 0 -12 -4 -9 -9z"/>
<path d="M3333 5489 c-2 -23 3 -25 10 -4 4 8 3 16 -1 19 -4 3 -9 -4 -9 -15z"/>
<path d="M4073 5485 c0 -8 4 -12 9 -9 5 3 6 10 3 15 -9 13 -12 11 -12 -6z"/>
<path d="M4100 5486 c0 -2 8 -10 18 -17 15 -13 16 -12 3 4 -13 16 -21 21 -21
13z"/>
<path d="M5575 5471 c-3 -5 -2 -12 3 -15 5 -3 9 1 9 9 0 17 -3 19 -12 6z"/>
<path d="M3155 5459 c-3 -4 2 -6 10 -5 21 3 28 13 10 13 -9 0 -18 -4 -20 -8z"/>
<path d="M3230 5459 c0 -5 5 -7 10 -4 6 3 10 8 10 11 0 2 -4 4 -10 4 -5 0 -10
-5 -10 -11z"/>
<path d="M3275 5460 c3 -5 8 -10 11 -10 2 0 4 5 4 10 0 6 -5 10 -11 10 -5 0
-7 -4 -4 -10z"/>
<path d="M3076 5433 c-6 -14 -5 -15 5 -6 7 7 10 15 7 18 -3 3 -9 -2 -12 -12z"/>
<path d="M2974 5422 c4 -3 14 -7 22 -8 9 -1 13 0 10 4 -4 3 -14 7 -22 8 -9 1
-13 0 -10 -4z"/>
<path d="M4199 5393 c-13 -16 -12 -17 4 -4 16 13 21 21 13 21 -2 0 -10 -8 -17
-17z"/>
<path d="M5526 5378 c3 -5 10 -6 15 -3 13 9 11 12 -6 12 -8 0 -12 -4 -9 -9z"/>
<path d="M2949 5363 c-13 -16 -12 -17 4 -4 9 7 17 15 17 17 0 8 -8 3 -21 -13z"/>
<path d="M2815 5340 c3 -5 8 -10 11 -10 2 0 4 5 4 10 0 6 -5 10 -11 10 -5 0
-7 -4 -4 -10z"/>
<path d="M2886 5342 c-3 -5 1 -9 9 -9 8 0 12 4 9 9 -3 4 -7 8 -9 8 -2 0 -6 -4
-9 -8z"/>
<path d="M5513 5325 c0 -8 4 -12 9 -9 5 3 6 10 3 15 -9 13 -12 11 -12 -6z"/>
<path d="M2735 5280 c3 -5 8 -10 11 -10 2 0 4 5 4 10 0 6 -5 10 -11 10 -5 0
-7 -4 -4 -10z"/>
<path d="M2777 5275 c-4 -8 -3 -16 1 -19 4 -3 9 4 9 15 2 23 -3 25 -10 4z"/>
<path d="M5596 5247 c3 -10 9 -15 12 -12 3 3 0 11 -7 18 -10 9 -11 8 -5 -6z"/>
<path d="M5366 5222 c-3 -5 1 -9 9 -9 8 0 12 4 9 9 -3 4 -7 8 -9 8 -2 0 -6 -4
-9 -8z"/>
<path d="M2990 5199 c0 -5 5 -7 10 -4 6 3 10 8 10 11 0 2 -4 4 -10 4 -5 0 -10
-5 -10 -11z"/>
<path d="M5413 5191 c0 -11 5 -18 9 -15 4 3 5 11 1 19 -7 21 -12 19 -10 -4z"/>
<path d="M2675 5151 c-3 -5 -2 -12 3 -15 5 -3 9 1 9 9 0 17 -3 19 -12 6z"/>
<path d="M5395 5149 c-4 -6 -5 -12 -2 -15 2 -3 7 2 10 11 7 17 1 20 -8 4z"/>
<path d="M2615 5139 c-3 -4 2 -6 10 -5 21 3 28 13 10 13 -9 0 -18 -4 -20 -8z"/>
<path d="M5255 5139 c-3 -4 2 -6 10 -5 21 3 28 13 10 13 -9 0 -18 -4 -20 -8z"/>
<path d="M2539 5108 c-5 -18 -6 -38 -1 -34 7 8 12 36 6 36 -2 0 -4 -1 -5 -2z"/>
<path d="M5086 5098 c3 -5 10 -6 15 -3 13 9 11 12 -6 12 -8 0 -12 -4 -9 -9z"/>
<path d="M5135 5099 c-3 -4 2 -6 10 -5 21 3 28 13 10 13 -9 0 -18 -4 -20 -8z"/>
<path d="M2716 5087 c3 -10 9 -15 12 -12 3 3 0 11 -7 18 -10 9 -11 8 -5 -6z"/>
<path d="M2670 5081 c0 -6 4 -13 10 -16 6 -3 7 1 4 9 -7 18 -14 21 -14 7z"/>
<path d="M2434 5022 c4 -3 14 -7 22 -8 9 -1 13 0 10 4 -4 3 -14 7 -22 8 -9 1
-13 0 -10 -4z"/>
<path d="M2354 4942 c4 -3 14 -7 22 -8 9 -1 13 0 10 4 -4 3 -14 7 -22 8 -9 1
-13 0 -10 -4z"/>
<path d="M2466 4918 c3 -5 10 -6 15 -3 13 9 11 12 -6 12 -8 0 -12 -4 -9 -9z"/>
<path d="M2341 4876 c-9 -11 -9 -16 1 -22 7 -4 10 -4 6 1 -4 4 -3 14 3 22 6 7
9 13 6 13 -2 0 -10 -6 -16 -14z"/>
<path d="M2294 4822 c4 -3 14 -7 22 -8 9 -1 13 0 10 4 -4 3 -14 7 -22 8 -9 1
-13 0 -10 -4z"/>
<path d="M2256 4738 c3 -4 11 -5 19 -1 21 7 19 12 -4 10 -11 0 -18 -5 -15 -9z"/>
<path d="M2194 4702 c4 -3 14 -7 22 -8 9 -1 13 0 10 4 -4 3 -14 7 -22 8 -9 1
-13 0 -10 -4z"/>
<path d="M2181 4636 c-9 -11 -9 -16 1 -22 7 -4 10 -4 6 1 -4 4 -3 14 3 22 6 7
9 13 6 13 -2 0 -10 -6 -16 -14z"/>
<path d="M2230 4640 c0 -5 5 -10 11 -10 5 0 7 5 4 10 -3 6 -8 10 -11 10 -2 0
-4 -4 -4 -10z"/>
<path d="M2115 4560 c-3 -5 -1 -10 4 -10 6 0 11 5 11 10 0 6 -2 10 -4 10 -3 0
-8 -4 -11 -10z"/>
<path d="M2240 4520 c-9 -6 -10 -10 -3 -10 6 0 15 5 18 10 8 12 4 12 -15 0z"/>
<path d="M2136 4502 c-3 -5 1 -9 9 -9 8 0 12 4 9 9 -3 4 -7 8 -9 8 -2 0 -6 -4
-9 -8z"/>
<path d="M3071 4418 c-128 -22 -262 -126 -325 -251 -136 -272 10 -593 305
-670 115 -30 269 -5 367 60 80 53 96 120 43 174 -40 39 -79 38 -166 -6 -89
-46 -158 -49 -238 -12 -66 30 -102 66 -134 136 -48 100 -21 230 62 304 41 37
122 68 180 68 47 1 71 -6 129 -34 100 -50 123 -51 167 -8 22 23 29 39 29 69 0
54 -26 83 -112 125 -111 54 -191 66 -307 45z"/>
<path d="M3900 4417 c-24 -12 -56 -66 -112 -192 -14 -33 -83 -186 -152 -339
-69 -154 -126 -290 -126 -303 0 -54 63 -107 115 -97 49 9 65 24 98 92 l32 67
194 0 194 1 27 -61 c31 -69 53 -92 94 -99 61 -11 116 38 116 102 0 15 -36 107
-80 205 -44 98 -87 195 -96 215 -9 20 -32 70 -50 110 -19 40 -34 75 -34 77 0
3 -22 52 -49 109 -42 90 -53 105 -81 115 -42 14 -59 14 -90 -2z m105 -463 c28
-63 51 -118 53 -122 1 -4 -47 -7 -108 -7 -93 0 -110 2 -110 15 0 9 4 20 8 26
5 5 28 53 52 107 23 53 46 97 49 97 3 0 29 -52 56 -116z"/>
<path d="M4620 4413 c-78 -26 -133 -74 -173 -148 -30 -57 -30 -174 0 -230 44
-80 123 -142 213 -165 52 -14 66 -24 85 -59 10 -20 10 -34 1 -61 -20 -62 -99
-80 -180 -40 -83 40 -156 -4 -156 -94 0 -71 106 -128 240 -129 71 -1 93 3 135
23 112 55 178 164 171 283 -8 130 -92 230 -226 268 -89 25 -118 61 -95 116 21
48 80 61 143 30 32 -16 84 -8 112 18 47 42 30 138 -28 165 -79 37 -175 46
-242 23z"/>
<path d="M5039 4415 c-58 -32 -62 -127 -6 -169 21 -15 42 -20 92 -20 51 0 65
-3 66 -16 0 -8 1 -160 1 -337 l1 -322 26 -31 c43 -52 131 -42 163 18 9 18 13
103 13 347 0 178 4 327 8 332 5 4 25 9 45 9 80 3 90 5 110 22 49 43 50 110 2
155 l-30 27 -233 0 c-181 -1 -238 -4 -258 -15z"/>
<path d="M5703 4414 c-17 -8 -36 -28 -43 -43 -9 -23 -15 -468 -11 -784 1 -30
8 -46 34 -72 43 -43 98 -42 139 5 l28 30 0 405 0 405 -27 30 c-34 37 -77 46
-120 24z"/>
<path d="M5998 4415 c-54 -30 -55 -38 -56 -450 0 -228 4 -393 10 -413 17 -58
84 -83 141 -55 50 25 55 56 55 301 0 123 2 225 4 227 2 3 53 -66 113 -153 186
-269 249 -357 265 -369 26 -20 70 -24 101 -8 57 30 57 33 55 472 l-1 401 -23
25 c-30 32 -65 41 -107 27 -65 -22 -69 -38 -69 -297 -1 -128 -4 -233 -8 -233
-3 0 -48 61 -100 135 -195 283 -249 361 -267 378 -24 25 -80 31 -113 12z"/>
<path d="M7107 4415 c-134 -37 -242 -126 -302 -248 -44 -90 -54 -138 -50 -235
6 -171 105 -325 258 -403 94 -48 243 -58 347 -23 96 32 190 107 245 194 36 57
67 157 68 223 1 55 -1 61 -31 88 -36 32 -20 31 -285 31 -187 0 -210 -6 -225
-65 -12 -43 2 -79 37 -100 23 -14 54 -17 155 -17 140 0 144 -2 101 -61 -78
-106 -210 -140 -323 -83 -162 83 -194 296 -65 429 89 92 235 105 342 31 24
-17 51 -26 75 -26 84 0 127 102 71 169 -73 86 -280 134 -418 96z"/>
<path d="M2086 4382 c-3 -5 1 -9 9 -9 8 0 12 4 9 9 -3 4 -7 8 -9 8 -2 0 -6 -4
-9 -8z"/>
<path d="M2054 4298 c-4 -7 -4 -10 1 -6 4 4 15 2 24 -5 14 -11 14 -10 2 6 -16
20 -18 21 -27 5z"/>
<path d="M2053 4209 c-2 -23 3 -25 10 -4 4 8 3 16 -1 19 -4 3 -9 -4 -9 -15z"/>
<path d="M2013 4055 c0 -8 4 -12 9 -9 5 3 6 10 3 15 -9 13 -12 11 -12 -6z"/>
<path d="M5576 1942 c-2 -4 -1 -14 4 -22 7 -11 9 -9 7 8 -1 24 -3 26 -11 14z"/>
<path d="M5533 1865 c0 -8 4 -12 9 -9 5 3 6 10 3 15 -9 13 -12 11 -12 -6z"/>
<path d="M5565 1800 c-3 -6 1 -7 9 -4 18 7 21 14 7 14 -6 0 -13 -4 -16 -10z"/>
<path d="M5454 1742 c4 -3 14 -7 22 -8 9 -1 13 0 10 4 -4 3 -14 7 -22 8 -9 1
-13 0 -10 -4z"/>
<path d="M5395 1699 c-3 -4 2 -6 10 -5 21 3 28 13 10 13 -9 0 -18 -4 -20 -8z"/>
<path d="M5514 1680 c0 -13 4 -16 10 -10 7 7 7 13 0 20 -6 6 -10 3 -10 -10z"/>
<path d="M5375 1671 c-3 -5 -2 -12 3 -15 5 -3 9 1 9 9 0 17 -3 19 -12 6z"/>
<path d="M5470 1661 c0 -6 4 -13 10 -16 6 -3 7 1 4 9 -7 18 -14 21 -14 7z"/>
<path d="M1979 1588 c-5 -18 -6 -38 -1 -34 7 8 12 36 6 36 -2 0 -4 -1 -5 -2z"/>
<path d="M5250 1580 c0 -5 5 -10 11 -10 5 0 7 5 4 10 -3 6 -8 10 -11 10 -2 0
-4 -4 -4 -10z"/>
<path d="M1854 1542 c4 -3 14 -7 22 -8 9 -1 13 0 10 4 -4 3 -14 7 -22 8 -9 1
-13 0 -10 -4z"/>
<path d="M5221 1516 c-9 -11 -9 -16 1 -22 7 -4 10 -4 6 1 -4 4 -3 14 3 22 6 7
9 13 6 13 -2 0 -10 -6 -16 -14z"/>
<path d="M5270 1518 c0 -4 4 -8 9 -8 6 0 12 4 15 8 3 5 -1 9 -9 9 -8 0 -15 -4
-15 -9z"/>
<path d="M5179 1508 c-5 -18 -6 -38 -1 -34 7 8 12 36 6 36 -2 0 -4 -1 -5 -2z"/>
<path d="M1779 1488 c-5 -18 -6 -38 -1 -34 7 8 12 36 6 36 -2 0 -4 -1 -5 -2z"/>
<path d="M5096 1462 c-3 -5 1 -9 9 -9 8 0 12 4 9 9 -3 4 -7 8 -9 8 -2 0 -6 -4
-9 -8z"/>
<path d="M1661 1436 c-9 -11 -9 -16 1 -22 7 -4 10 -4 6 1 -4 4 -3 14 3 22 6 7
9 13 6 13 -2 0 -10 -6 -16 -14z"/>
<path d="M5135 1440 c-3 -5 -1 -10 4 -10 6 0 11 5 11 10 0 6 -2 10 -4 10 -3 0
-8 -4 -11 -10z"/>
<path d="M5210 1446 c0 -2 7 -7 16 -10 8 -3 12 -2 9 4 -6 10 -25 14 -25 6z"/>
<path d="M5054 1422 c4 -3 14 -7 22 -8 9 -1 13 0 10 4 -4 3 -14 7 -22 8 -9 1
-13 0 -10 -4z"/>
<path d="M1786 1402 c-3 -5 1 -9 9 -9 8 0 12 4 9 9 -3 4 -7 8 -9 8 -2 0 -6 -4
-9 -8z"/>
<path d="M1655 1381 c-3 -5 -2 -12 3 -15 5 -3 9 1 9 9 0 17 -3 19 -12 6z"/>
<path d="M4934 1376 c1 -8 5 -18 8 -22 4 -3 5 1 4 10 -1 8 -5 18 -8 22 -4 3
-5 -1 -4 -10z"/>
<path d="M4974 1376 c1 -8 5 -18 8 -22 4 -3 5 1 4 10 -1 8 -5 18 -8 22 -4 3
-5 -1 -4 -10z"/>
<path d="M5075 1360 c-3 -5 -1 -10 4 -10 6 0 11 5 11 10 0 6 -2 10 -4 10 -3 0
-8 -4 -11 -10z"/>
<path d="M1615 1339 c-3 -4 2 -6 10 -5 21 3 28 13 10 13 -9 0 -18 -4 -20 -8z"/>
<path d="M4879 1333 c-12 -16 -12 -17 2 -6 9 7 20 9 24 5 5 -4 5 -1 1 6 -9 16
-11 15 -27 -5z"/>
<path d="M4774 1316 c1 -8 5 -18 8 -22 4 -3 5 1 4 10 -1 8 -5 18 -8 22 -4 3
-5 -1 -4 -10z"/>
<path d="M4819 1328 c-5 -18 -6 -38 -1 -34 7 8 12 36 6 36 -2 0 -4 -1 -5 -2z"/>
<path d="M1495 1299 c-3 -4 2 -6 10 -5 21 3 28 13 10 13 -9 0 -18 -4 -20 -8z"/>
<path d="M5036 1273 c-6 -14 -5 -15 5 -6 7 7 10 15 7 18 -3 3 -9 -2 -12 -12z"/>
<path d="M1494 1262 c4 -3 14 -7 22 -8 9 -1 13 0 10 4 -4 3 -14 7 -22 8 -9 1
-13 0 -10 -4z"/>
<path d="M4654 1256 c1 -8 5 -18 8 -22 4 -3 5 1 4 10 -1 8 -5 18 -8 22 -4 3
-5 -1 -4 -10z"/>
<path d="M1455 1240 c-3 -5 -1 -10 4 -10 6 0 11 5 11 10 0 6 -2 10 -4 10 -3 0
-8 -4 -11 -10z"/>
<path d="M4610 1239 c0 -5 5 -7 10 -4 6 3 10 8 10 11 0 2 -4 4 -10 4 -5 0 -10
-5 -10 -11z"/>
<path d="M4810 1246 c0 -2 7 -7 16 -10 8 -3 12 -2 9 4 -6 10 -25 14 -25 6z"/>
<path d="M1413 1209 c-2 -23 3 -25 10 -4 4 8 3 16 -1 19 -4 3 -9 -4 -9 -15z"/>
<path d="M4590 1216 c0 -2 8 -10 18 -17 15 -13 16 -12 3 4 -13 16 -21 21 -21
13z"/>
<path d="M2600 1206 c0 -2 8 -10 18 -17 15 -13 16 -12 3 4 -13 16 -21 21 -21
13z"/>
<path d="M4454 1196 c1 -8 5 -18 8 -22 4 -3 5 1 4 10 -1 8 -5 18 -8 22 -4 3
-5 -1 -4 -10z"/>
<path d="M1330 1160 c0 -5 5 -10 11 -10 5 0 7 5 4 10 -3 6 -8 10 -11 10 -2 0
-4 -4 -4 -10z"/>
<path d="M1259 1148 c-5 -18 -6 -38 -1 -34 7 8 12 36 6 36 -2 0 -4 -1 -5 -2z"/>
<path d="M4293 1143 c4 -3 1 -13 -6 -22 -11 -14 -10 -14 5 -2 16 12 16 31 1
31 -4 0 -3 -3 0 -7z"/>
<path d="M2750 1136 c0 -2 8 -10 18 -17 15 -13 16 -12 3 4 -13 16 -21 21 -21
13z"/>
<path d="M1194 1102 c4 -3 14 -7 22 -8 9 -1 13 0 10 4 -4 3 -14 7 -22 8 -9 1
-13 0 -10 -4z"/>
<path d="M4074 1102 c4 -3 14 -7 22 -8 9 -1 13 0 10 4 -4 3 -14 7 -22 8 -9 1
-13 0 -10 -4z"/>
<path d="M3910 1096 c0 -2 8 -10 18 -17 15 -13 16 -12 3 4 -13 16 -21 21 -21
13z"/>
<path d="M1247 1079 c7 -7 15 -10 18 -7 3 3 -2 9 -12 12 -14 6 -15 5 -6 -5z"/>
<path d="M3600 1080 c-9 -6 -10 -10 -3 -10 6 0 15 5 18 10 8 12 4 12 -15 0z"/>
<path d="M1175 1061 c-3 -5 -2 -12 3 -15 5 -3 9 1 9 9 0 17 -3 19 -12 6z"/>
<path d="M3670 1041 c0 -6 4 -13 10 -16 6 -3 7 1 4 9 -7 18 -14 21 -14 7z"/>
<path d="M1055 1031 c-3 -5 -2 -12 3 -15 5 -3 9 1 9 9 0 17 -3 19 -12 6z"/>
<path d="M1134 1022 c4 -3 14 -7 22 -8 9 -1 13 0 10 4 -4 3 -14 7 -22 8 -9 1
-13 0 -10 -4z"/>
<path d="M3610 960 c0 -5 5 -10 11 -10 5 0 7 5 4 10 -3 6 -8 10 -11 10 -2 0
-4 -4 -4 -10z"/>
<path d="M919 933 c-12 -16 -12 -17 2 -6 9 7 20 9 24 5 5 -4 5 -1 1 6 -9 16
-11 15 -27 -5z"/>
<path d="M1196 927 c3 -10 9 -15 12 -12 3 3 0 11 -7 18 -10 9 -11 8 -5 -6z"/>
<path d="M1000 915 c-7 -9 -11 -17 -9 -20 3 -2 10 5 17 15 14 24 10 26 -8 5z"/>
<path d="M895 901 c-3 -5 -2 -12 3 -15 5 -3 9 1 9 9 0 17 -3 19 -12 6z"/>
</g>
</svg>
